<svg width="1920" height="1080" viewBox="0 0 1920 1080" xmlns="http://www.w3.org/2000/svg"><path d="M1447,597C1448.5,684.0011211772044,1416.8813728906052,796.905214767458,1366.0576474687264,833.5033635316129C1315.2339220468475,870.1015122957677,1231.0768632916352,804.987923234323,1142.0576474687264,816.588892584929C1053.0384316458176,828.189861935535,914.9634365297322,901.6234344774682,831.9423525312736,903.1091796352489C748.921268532815,904.5949247930296,695.2548688998539,880.354893470821,643.931143477975,825.5033635316129C592.607418056096,770.6518335924047,527.6647984911169,661.0011211772043,524,574C520.3352015088831,486.9988788227957,562.4157755785956,365.14494472579275,621.9423525312736,303.4966364683871C681.4689294839517,241.84832821098146,799.1402458931598,213.38497877672944,881.1594617160686,204.1101504555661C963.1786775389774,194.83532213440276,1034.7412831766167,229.94991887260355,1114.0576474687264,247.84766654140702C1193.374011760836,265.7454142102105,1301.5672553801808,253.30458089195486,1357.0576474687264,311.496636468387C1412.548039557272,369.68869204481916,1445.5,509.9988788227957,1447,597C1448.5,684.0011211772044,1416.8813728906052,796.905214767458,1366.0576474687264,833.5033635316129" fill="#ffffff"/></svg>